<svg width="1092" height="199" viewBox="0 0 1092 199" fill="none" xmlns="http://www.w3.org/2000/svg">
<path d="M110.154 195H72.8679L65.9583 35.2954L35.5818 195H0.12085L40.0144 3.87598H96.074L101.941 137.767L167.126 3.87598H223.838L183.814 195H147.962L185.639 36.4688L110.154 195ZM1061.6 145.72L1052.09 48.7236V3.87598H1091.72V48.7236L1082.33 145.72H1061.6ZM1053.65 195V158.366H1090.28V195H1053.65Z" fill="#00BFFF"/>
<path d="M223.316 100.611C223.316 81.1426 226.228 64.8027 232.051 51.5918C236.397 41.8574 242.307 33.1226 249.781 25.3872C257.343 17.6519 265.6 11.9155 274.552 8.17822C286.459 3.13721 300.192 0.616699 315.749 0.616699C343.909 0.616699 366.42 9.35156 383.281 26.8213C400.23 44.291 408.704 68.5835 408.704 99.6987C408.704 130.553 400.317 154.715 383.542 172.185C366.768 189.568 344.344 198.259 316.271 198.259C287.85 198.259 265.252 189.611 248.478 172.315C231.703 154.933 223.316 131.031 223.316 100.611ZM263.079 99.3076C263.079 120.949 268.077 137.376 278.072 148.588C288.067 159.713 300.757 165.275 316.14 165.275C331.524 165.275 344.127 159.756 353.948 148.718C363.856 137.593 368.81 120.949 368.81 98.7861C368.81 76.8838 363.987 60.5439 354.339 49.7666C344.779 38.9893 332.046 33.6006 316.14 33.6006C300.235 33.6006 287.415 39.0762 277.681 50.0273C267.947 60.8916 263.079 77.3184 263.079 99.3076ZM487.709 195L419.394 3.87598H461.243L509.611 145.329L556.414 3.87598H597.351L528.906 195H487.709ZM615.864 195V3.87598H654.453V195H615.864ZM691.348 195V3.87598H833.062V36.208H729.938V78.5786H825.891V110.78H729.938V162.798H836.712V195H691.348ZM859.657 132.813L897.204 129.163C899.464 141.765 904.027 151.021 910.893 156.932C917.846 162.842 927.19 165.797 938.923 165.797C951.352 165.797 960.695 163.189 966.953 157.975C973.298 152.673 976.47 146.502 976.47 139.462C976.47 134.942 975.123 131.118 972.428 127.989C969.821 124.773 965.215 121.992 958.609 119.646C954.09 118.081 943.79 115.3 927.711 111.302C907.026 106.174 892.511 99.8726 884.167 92.3979C872.434 81.8813 866.567 69.0615 866.567 53.9385C866.567 44.2041 869.305 35.1216 874.781 26.6909C880.343 18.1733 888.296 11.6982 898.638 7.26562C909.068 2.83301 921.627 0.616699 936.316 0.616699C960.304 0.616699 978.339 5.875 990.42 16.3916C1002.59 26.9082 1008.98 40.9448 1009.58 58.5015L970.994 60.1963C969.343 50.375 965.78 43.335 960.304 39.0762C954.915 34.7305 946.789 32.5576 935.925 32.5576C924.713 32.5576 915.934 34.8608 909.59 39.4673C905.505 42.4224 903.462 46.377 903.462 51.3311C903.462 55.8506 905.374 59.7183 909.198 62.9341C914.066 67.019 925.886 71.2778 944.659 75.7104C963.433 80.1431 977.296 84.7495 986.248 89.5298C995.287 94.2231 1002.33 100.698 1007.37 108.955C1012.5 117.125 1015.06 127.25 1015.06 139.332C1015.06 150.283 1012.02 160.539 1005.93 170.099C999.85 179.66 991.245 186.787 980.12 191.48C968.995 196.086 955.133 198.39 938.532 198.39C914.37 198.39 895.814 192.827 882.864 181.702C869.913 170.49 862.178 154.194 859.657 132.813Z" fill="black"/>
</svg>
